<?xml version="1.0" encoding="UTF-8" standalone="no"?>
<!-- Created with Inkscape (http://www.inkscape.org/) -->
<svg xmlns:inkscape="http://www.inkscape.org/namespaces/inkscape" xmlns:sodipodi="http://sodipodi.sourceforge.net/DTD/sodipodi-0.dtd" xmlns="http://www.w3.org/2000/svg" xmlns:svg="http://www.w3.org/2000/svg" version="1.1" id="svg2" width="933.33331" height="284" viewBox="0 0 933.33331 284" sodipodi:docname="Vogue_Hotels_Logo_B.ai">
  <defs id="defs6">
    <clipPath id="clipPath16">
      <path d="M 0,213 H 700 V 0 H 0 Z" id="path14"></path>
    </clipPath>
  </defs>
  <g id="g8" inkscape:groupmode="layer" inkscape:label="Vogue_Hotels_Logo_B" transform="matrix(1.3333333,0,0,-1.3333333,0,284)">
    <g id="g10">
      <g id="g12" clip-path="url(#clipPath16)">
        <g id="g18" transform="translate(328.6136,25.3932)">
          <path d="m 0,0 h 9.807 v -24.867 h 7.092 V 0 h 9.807 V 5.779 H 0 Z m 190.919,-8.406 c -1.488,0.554 -3.4,1.109 -5.735,1.664 -2.248,0.496 -3.918,0.999 -5.013,1.51 -1.095,0.511 -1.642,1.292 -1.642,2.342 0,1.051 0.474,1.897 1.423,2.54 0.949,0.642 2.415,0.962 4.399,0.962 2.832,0 5.663,-0.802 8.495,-2.407 l 2.188,5.385 c -1.401,0.876 -3.035,1.547 -4.903,2.014 -1.868,0.467 -3.78,0.7 -5.735,0.7 -2.802,0 -5.174,-0.423 -7.115,-1.269 -1.94,-0.847 -3.392,-1.992 -4.356,-3.437 -0.963,-1.445 -1.445,-3.057 -1.445,-4.838 0,-2.043 0.533,-3.678 1.598,-4.903 1.065,-1.227 2.343,-2.116 3.831,-2.671 1.488,-0.554 3.4,-1.109 5.736,-1.664 1.517,-0.35 2.721,-0.671 3.611,-0.963 0.89,-0.292 1.62,-0.678 2.189,-1.161 0.569,-0.481 0.854,-1.086 0.854,-1.816 0,-0.993 -0.481,-1.788 -1.445,-2.386 -0.963,-0.599 -2.451,-0.898 -4.466,-0.898 -1.809,0 -3.619,0.292 -5.428,0.876 -1.809,0.584 -3.371,1.357 -4.685,2.32 l -2.408,-5.341 c 1.372,-1.05 3.189,-1.904 5.451,-2.561 2.262,-0.656 4.604,-0.985 7.027,-0.985 2.802,0 5.18,0.423 7.136,1.269 1.956,0.847 3.423,1.993 4.4,3.438 0.978,1.444 1.467,3.042 1.467,4.793 0,2.044 -0.533,3.663 -1.598,4.86 -1.065,1.197 -2.342,2.072 -3.831,2.627 M 125.061,5.779 h -7.092 v -30.646 h 22.459 v 5.779 H 125.061 Z M 66.603,-12.084 h 14.228 v 5.517 H 66.603 v 6.655 h 16.111 v 5.691 h -23.16 v -30.646 h 23.729 v 5.691 h -16.68 z m -104.266,2.539 c 0,1.898 -0.415,3.59 -1.248,5.079 -0.831,1.489 -1.977,2.649 -3.436,3.481 -1.46,0.832 -3.094,1.247 -4.904,1.247 -1.809,0 -3.444,-0.415 -4.903,-1.247 -1.46,-0.832 -2.605,-1.992 -3.437,-3.481 -0.832,-1.489 -1.248,-3.181 -1.248,-5.079 0,-1.896 0.416,-3.589 1.248,-5.078 0.832,-1.489 1.977,-2.648 3.437,-3.481 1.459,-0.831 3.094,-1.247 4.903,-1.247 1.81,0 3.444,0.416 4.904,1.247 1.459,0.833 2.605,1.992 3.436,3.481 0.833,1.489 1.248,3.182 1.248,5.078 m 4.991,8.122 c 1.459,-2.408 2.189,-5.115 2.189,-8.122 0,-3.005 -0.73,-5.713 -2.189,-8.121 -1.459,-2.408 -3.459,-4.297 -5.998,-5.67 -2.539,-1.371 -5.399,-2.057 -8.581,-2.057 -3.181,0 -6.049,0.686 -8.603,2.057 -2.553,1.373 -4.553,3.262 -5.997,5.67 -1.445,2.408 -2.167,5.116 -2.167,8.121 0,3.007 0.722,5.714 2.167,8.122 1.444,2.408 3.444,4.297 5.997,5.669 2.554,1.373 5.422,2.058 8.603,2.058 3.182,0 6.042,-0.685 8.581,-2.058 2.539,-1.372 4.539,-3.261 5.998,-5.669 m -72.819,-4.882 h -13.922 V 5.779 h -7.092 v -30.646 h 7.092 v 12.564 h 13.922 v -12.564 h 7.093 V 5.779 h -7.093 z m 471.59,88.251 c 0,-18.211 -4.188,-36.422 -30.635,-36.422 H 311 c -0.441,0 -18.735,-0.991 -18.735,12.074 v 54.633 h 16.53 c 17.852,-0.593 20.057,-13.065 20.057,-26.13 h 3.966 v 56.614 h -3.966 c 0,-13.065 -2.425,-25.931 -20.938,-26.525 h -15.649 v 53.643 c 0,7.918 7.495,12.273 18.735,12.273 h 18.953 c 26.447,0 30.634,-14.252 30.634,-32.464 h 5.291 v 36.422 h -112.4 v -2.771 c 0,0 18.954,0.595 18.954,-14.054 V 57.202 c 0,-13.659 -18.954,-13.064 -18.954,-13.064 V 41.367 H 371.386 V 81.946 Z M 181.826,183.363 c 0,0 21.157,0.773 21.157,-14.662 v -65.98 c 0,-16.592 -0.44,-53.44 -46.723,-53.44 -5.069,0 -9.918,0.77 -14.544,2.893 -11.463,5.209 -16.971,16.013 -18.734,26.817 -1.763,9.259 -1.104,18.906 -1.104,28.36 v 32.99 26.045 3.28 c 0.882,14.277 18.955,13.697 18.955,13.697 v 2.701 H 83.311 v -2.701 c 0,0 14.765,0.58 18.292,-10.031 0.22,-1.351 0.441,-2.701 0.441,-3.859 v -4.436 -11.191 -15.242 -16.591 -15.434 -11.19 c 0,-5.402 0.22,-10.803 1.322,-16.206 0.663,-4.051 1.984,-8.102 3.967,-11.96 2.205,-4.631 5.07,-8.875 8.816,-12.348 4.188,-4.245 9.256,-7.525 15.208,-9.646 7.271,-2.895 15.427,-3.86 23.361,-3.86 37.025,0 52.672,18.329 52.672,61.352 v 65.98 c 0,15.435 18.734,14.662 18.734,14.662 v 2.701 H 181.826 Z M -48.638,70.85 c 7.103,11.983 11.357,27.223 11.357,43.829 0,16.955 -4.428,32.491 -11.801,44.585 -4.532,-8.284 -8.23,-19.547 -9.801,-34.937 -1.542,-14.47 0.221,-29.133 5.511,-43.024 1.293,-3.462 2.865,-6.999 4.734,-10.453 M -59.854,56.799 c -11.02,9.174 -18.165,22.055 -21.104,38.01 -1.103,5.595 -1.544,10.996 -1.544,16.398 0,30.29 11.238,48.43 24.67,59.394 -8.572,8.741 -19.229,13.919 -30.8,13.919 -28.208,0 -51.13,-31.254 -51.13,-69.841 0,-38.585 22.922,-69.838 51.13,-69.838 10.678,0 20.577,4.409 28.778,11.958 m 103.38,46.498 c 5.73,0 10.578,0.193 14.104,0.579 v -4.052 c -2.204,0 -3.966,-0.386 -5.51,-0.772 -2.423,-0.964 -4.628,-3.28 -4.628,-7.909 l -0.22,-22.766 0.66,-25.08 h -6.353 c -0.221,4.437 -2.425,11.382 -6.171,11.382 -1.763,0 -2.864,-0.386 -7.494,-3.473 C 18.658,45.032 8.96,41.175 -4.043,40.403 c -1.761,0 -3.526,-0.193 -5.288,-0.193 h -0.662 c -17.161,0 -30.779,3.987 -41.273,10.412 -10.888,-6.845 -23.68,-10.797 -37.366,-10.797 -39.67,0 -71.847,33.182 -71.847,73.891 0,40.9 32.177,73.891 71.847,73.891 14.193,0 27.415,-4.24 38.559,-11.537 1.458,0.881 2.919,1.719 4.378,2.468 7.271,3.859 15.647,6.56 24.461,7.911 l 3.086,0.386 c 3.307,0.386 6.613,0.386 9.919,0.386 19.174,-0.193 29.532,-6.367 40.333,-12.927 1.504,-0.965 3.267,-2.315 5.47,-1.351 0.883,0.386 1.324,0.966 1.764,1.544 1.103,1.543 1.763,3.474 2.203,5.402 l 0.663,3.473 v 0.964 h 5.288 c -0.66,-9.646 -0.881,-22.379 -0.881,-44.758 v -0.772 -0.193 h -5.51 v 0.193 c 0,1.156 -0.221,2.314 -0.441,3.473 -1.322,6.945 -3.086,13.504 -6.17,19.099 -1.543,2.893 -3.49,5.401 -5.913,7.911 -1.985,2.121 -4.41,4.05 -7.274,5.787 -9.256,5.402 -19.835,8.296 -30.634,8.296 -3.526,0 -6.832,-0.193 -9.917,-0.772 -8.721,-1.952 -16.303,-6.383 -22.44,-12.936 15.242,-13.535 24.902,-33.543 24.902,-55.938 0,-21.665 -9.114,-41.196 -23.62,-54.73 5.909,-6.568 13.597,-11.743 23.582,-13.76 3.524,-0.578 7.493,-0.771 11.461,-0.771 9.255,0 15.867,2.315 23.102,5.787 l 0.661,0.386 c 2.645,1.543 4.189,3.086 5.07,4.63 0.661,1.158 1.102,2.701 1.322,4.437 v 1.737 4.244 l -0.441,19.872 c 0,6.944 -3.086,10.61 -7.457,12.54 -3.525,1.158 -8.374,1.544 -14.984,1.736 v 4.052 l 16.748,-0.579 z m -269.219,82.767 h 44.299 v -3.085 l -1.762,-0.386 c -12.784,-3.087 -16.971,-16.399 -20.938,-25.853 l -51.35,-118.071 -56.457,129.839 c -1.101,2.509 -2.645,5.017 -4.372,7.139 -6.39,7.716 -12.341,7.332 -12.341,7.332 v 3.085 h 54.217 v -3.085 c 0,0.191 -5.731,-0.386 -5.731,-0.386 -3.746,-0.386 -7.752,-1.737 -9.992,-4.438 -3.968,-5.016 -0.221,-10.61 2.02,-15.627 l 41.031,-93.955 40.11,92.412 c 0.662,1.543 1.102,3.087 1.543,4.822 3.525,18.329 -20.277,17.172 -20.277,17.172 z" style="fill:#000000;fill-opacity:1;fill-rule:nonzero;stroke:none" id="path20"></path>
        </g>
      </g>
    </g>
  </g>
</svg>
